<svg width="17" height="17" viewBox="0 0 17 17" fill="none" xmlns="http://www.w3.org/2000/svg">
<path d="M8.34961 4.04492C10.6875 4.04492 12.6172 5.97461 12.6172 8.3125C12.6172 10.6875 10.6875 12.5801 8.34961 12.5801C5.97461 12.5801 4.08203 10.6875 4.08203 8.3125C4.08203 5.97461 5.97461 4.04492 8.34961 4.04492ZM8.34961 11.0957C9.87109 11.0957 11.0957 9.87109 11.0957 8.3125C11.0957 6.79102 9.87109 5.56641 8.34961 5.56641C6.79102 5.56641 5.56641 6.79102 5.56641 8.3125C5.56641 9.87109 6.82812 11.0957 8.34961 11.0957ZM13.7676 3.89648C13.7676 4.45312 13.3223 4.89844 12.7656 4.89844C12.209 4.89844 11.7637 4.45312 11.7637 3.89648C11.7637 3.33984 12.209 2.89453 12.7656 2.89453C13.3223 2.89453 13.7676 3.33984 13.7676 3.89648ZM16.5879 4.89844C16.6621 6.27148 16.6621 10.3906 16.5879 11.7637C16.5137 13.0996 16.2168 14.25 15.252 15.252C14.2871 16.2168 13.0996 16.5137 11.7637 16.5879C10.3906 16.6621 6.27148 16.6621 4.89844 16.5879C3.5625 16.5137 2.41211 16.2168 1.41016 15.252C0.445312 14.25 0.148438 13.0996 0.0742188 11.7637C0 10.3906 0 6.27148 0.0742188 4.89844C0.148438 3.5625 0.445312 2.375 1.41016 1.41016C2.41211 0.445312 3.5625 0.148438 4.89844 0.0742188C6.27148 0 10.3906 0 11.7637 0.0742188C13.0996 0.148438 14.2871 0.445312 15.252 1.41016C16.2168 2.375 16.5137 3.5625 16.5879 4.89844ZM14.8066 13.2109C15.252 12.1348 15.1406 9.53711 15.1406 8.3125C15.1406 7.125 15.252 4.52734 14.8066 3.41406C14.5098 2.70898 13.9531 2.11523 13.248 1.85547C12.1348 1.41016 9.53711 1.52148 8.34961 1.52148C7.125 1.52148 4.52734 1.41016 3.45117 1.85547C2.70898 2.15234 2.15234 2.70898 1.85547 3.41406C1.41016 4.52734 1.52148 7.125 1.52148 8.3125C1.52148 9.53711 1.41016 12.1348 1.85547 13.2109C2.15234 13.9531 2.70898 14.5098 3.45117 14.8066C4.52734 15.252 7.125 15.1406 8.34961 15.1406C9.53711 15.1406 12.1348 15.252 13.248 14.8066C13.9531 14.5098 14.5469 13.9531 14.8066 13.2109Z" fill="#292F36"/>
</svg>
