<svg width="16" height="16" viewBox="0 0 16 16" fill="none" xmlns="http://www.w3.org/2000/svg">
<path d="M3.51562 15.7148H0.246094V5.20312H3.51562V15.7148ZM1.86328 3.79688C0.84375 3.79688 0 2.91797 0 1.86328C0 0.84375 0.84375 0 1.86328 0C2.91797 0 3.76172 0.84375 3.76172 1.86328C3.76172 2.91797 2.91797 3.79688 1.86328 3.79688ZM15.7148 15.7148H12.4805V10.6172C12.4805 9.38672 12.4453 7.83984 10.7578 7.83984C9.07031 7.83984 8.82422 9.14062 8.82422 10.5117V15.7148H5.55469V5.20312H8.68359V6.64453H8.71875C9.17578 5.83594 10.2305 4.95703 11.8125 4.95703C15.1172 4.95703 15.75 7.13672 15.75 9.94922V15.7148H15.7148Z" fill="#292F36"/>
</svg>
